<?xml version="1.0" encoding="us-ascii" standalone="no"?><svg xmlns="http://www.w3.org/2000/svg" xmlns:xlink="http://www.w3.org/1999/xlink" contentStyleType="text/css" height="599px" preserveAspectRatio="none" style="width:876px;height:599px;background:#FFFFFF;" version="1.1" viewBox="0 0 876 599" width="876px" zoomAndPan="magnify"><defs/><g><rect fill="#DDDDDD" height="587.1172" style="stroke:#181818;stroke-width:0.5;" width="511" x="148.5" y="6"/><text fill="#000000" font-family="sans-serif" font-size="13" font-weight="bold" lengthAdjust="spacing" textLength="134" x="337" y="18.0669">Twoliter Container</text><rect fill="#DDDDDD" height="587.1172" style="stroke:#181818;stroke-width:0.5;" width="122" x="748" y="6"/><text fill="#000000" font-family="sans-serif" font-size="13" font-weight="bold" lengthAdjust="spacing" textLength="30" x="794" y="18.0669">SDK</text><line style="stroke:#181818;stroke-width:0.5;stroke-dasharray:5.0,5.0;" x1="57" x2="57" y1="56.4297" y2="558.8203"/><line style="stroke:#181818;stroke-width:0.5;stroke-dasharray:5.0,5.0;" x1="221.5" x2="221.5" y1="56.4297" y2="558.8203"/><line style="stroke:#181818;stroke-width:0.5;stroke-dasharray:5.0,5.0;" x1="382.5" x2="382.5" y1="56.4297" y2="558.8203"/><line style="stroke:#181818;stroke-width:0.5;stroke-dasharray:5.0,5.0;" x1="619.5" x2="619.5" y1="56.4297" y2="558.8203"/><line style="stroke:#181818;stroke-width:0.5;stroke-dasharray:5.0,5.0;" x1="809" x2="809" y1="56.4297" y2="558.8203"/><rect fill="#E2E2F0" height="30.2969" rx="2.5" ry="2.5" style="stroke:#181818;stroke-width:0.5;" width="104" x="5" y="25.1328"/><text fill="#000000" font-family="sans-serif" font-size="14" lengthAdjust="spacing" textLength="90" x="12" y="45.1279">Twoliter Host</text><rect fill="#E2E2F0" height="30.2969" rx="2.5" ry="2.5" style="stroke:#181818;stroke-width:0.5;" width="104" x="5" y="557.8203"/><text fill="#000000" font-family="sans-serif" font-size="14" lengthAdjust="spacing" textLength="90" x="12" y="577.8154">Twoliter Host</text><rect fill="#E2E2F0" height="30.2969" rx="2.5" ry="2.5" style="stroke:#181818;stroke-width:0.5;" width="139" x="152.5" y="25.1328"/><text fill="#000000" font-family="sans-serif" font-size="14" lengthAdjust="spacing" textLength="125" x="159.5" y="45.1279">Twoliter Container</text><rect fill="#E2E2F0" height="30.2969" rx="2.5" ry="2.5" style="stroke:#181818;stroke-width:0.5;" width="139" x="152.5" y="557.8203"/><text fill="#000000" font-family="sans-serif" font-size="14" lengthAdjust="spacing" textLength="125" x="159.5" y="577.8154">Twoliter Container</text><rect fill="#E2E2F0" height="30.2969" rx="2.5" ry="2.5" style="stroke:#181818;stroke-width:0.5;" width="55" x="355.5" y="25.1328"/><text fill="#000000" font-family="sans-serif" font-size="14" lengthAdjust="spacing" textLength="41" x="362.5" y="45.1279">Cargo</text><rect fill="#E2E2F0" height="30.2969" rx="2.5" ry="2.5" style="stroke:#181818;stroke-width:0.5;" width="55" x="355.5" y="557.8203"/><text fill="#000000" font-family="sans-serif" font-size="14" lengthAdjust="spacing" textLength="41" x="362.5" y="577.8154">Cargo</text><rect fill="#E2E2F0" height="30.2969" rx="2.5" ry="2.5" style="stroke:#181818;stroke-width:0.5;" width="71" x="584.5" y="25.1328"/><text fill="#000000" font-family="sans-serif" font-size="14" lengthAdjust="spacing" textLength="57" x="591.5" y="45.1279">Buildsys</text><rect fill="#E2E2F0" height="30.2969" rx="2.5" ry="2.5" style="stroke:#181818;stroke-width:0.5;" width="71" x="584.5" y="557.8203"/><text fill="#000000" font-family="sans-serif" font-size="14" lengthAdjust="spacing" textLength="57" x="591.5" y="577.8154">Buildsys</text><rect fill="#E2E2F0" height="30.2969" rx="2.5" ry="2.5" style="stroke:#181818;stroke-width:0.5;" width="114" x="752" y="25.1328"/><text fill="#000000" font-family="sans-serif" font-size="14" lengthAdjust="spacing" textLength="100" x="759" y="45.1279">SDK Container</text><rect fill="#E2E2F0" height="30.2969" rx="2.5" ry="2.5" style="stroke:#181818;stroke-width:0.5;" width="114" x="752" y="557.8203"/><text fill="#000000" font-family="sans-serif" font-size="14" lengthAdjust="spacing" textLength="100" x="759" y="577.8154">SDK Container</text><polygon fill="#181818" points="210,83.5625,220,87.5625,210,91.5625,214,87.5625" style="stroke:#181818;stroke-width:1.0;"/><line style="stroke:#181818;stroke-width:1.0;" x1="57" x2="216" y1="87.5625" y2="87.5625"/><text fill="#000000" font-family="sans-serif" font-size="13" font-weight="bold" lengthAdjust="spacing" textLength="9" x="64" y="82.4966">1</text><text fill="#000000" font-family="sans-serif" font-size="13" lengthAdjust="spacing" textLength="128" x="77" y="82.4966">twoliter build variant</text><polygon fill="#181818" points="371,112.6953,381,116.6953,371,120.6953,375,116.6953" style="stroke:#181818;stroke-width:1.0;"/><line style="stroke:#181818;stroke-width:1.0;" x1="222" x2="377" y1="116.6953" y2="116.6953"/><text fill="#000000" font-family="sans-serif" font-size="13" font-weight="bold" lengthAdjust="spacing" textLength="9" x="229" y="111.6294">2</text><text fill="#000000" font-family="sans-serif" font-size="13" lengthAdjust="spacing" textLength="124" x="242" y="111.6294">cargo make variant</text><polygon fill="#181818" points="608,187.2266,618,191.2266,608,195.2266,612,191.2266" style="stroke:#181818;stroke-width:1.0;"/><line style="stroke:#181818;stroke-width:1.0;" x1="383" x2="614" y1="191.2266" y2="191.2266"/><text fill="#000000" font-family="sans-serif" font-size="13" font-weight="bold" lengthAdjust="spacing" textLength="9" x="390" y="163.4614">3</text><text fill="#000000" font-family="sans-serif" font-size="13" lengthAdjust="spacing" textLength="118" x="403" y="140.7622">cargo build variant</text><text fill="#000000" font-family="sans-serif" font-size="13" lengthAdjust="spacing" textLength="106" x="403" y="155.895">cargo build kit(s)</text><text fill="#000000" font-family="sans-serif" font-size="13" lengthAdjust="spacing" textLength="145" x="403" y="171.0278">cargo build package(s)</text><text fill="#000000" font-family="sans-serif" font-size="13" lengthAdjust="spacing" textLength="144" x="403" y="186.1606">buildsys build-package</text><polygon fill="#181818" points="797,216.3594,807,220.3594,797,224.3594,801,220.3594" style="stroke:#181818;stroke-width:1.0;"/><line style="stroke:#181818;stroke-width:1.0;" x1="620" x2="803" y1="220.3594" y2="220.3594"/><text fill="#000000" font-family="sans-serif" font-size="13" font-weight="bold" lengthAdjust="spacing" textLength="9" x="627" y="215.2935">4</text><text fill="#000000" font-family="sans-serif" font-size="13" lengthAdjust="spacing" textLength="152" x="640" y="215.2935">rpm build package.spec</text><polygon fill="#181818" points="631,245.4922,621,249.4922,631,253.4922,627,249.4922" style="stroke:#181818;stroke-width:1.0;"/><line style="stroke:#181818;stroke-width:1.0;" x1="625" x2="808" y1="249.4922" y2="249.4922"/><text fill="#000000" font-family="sans-serif" font-size="13" font-weight="bold" lengthAdjust="spacing" textLength="9" x="637" y="244.4263">5</text><text fill="#000000" font-family="sans-serif" font-size="13" lengthAdjust="spacing" textLength="84" x="650" y="244.4263">package.rpm</text><polygon fill="#181818" points="608,274.625,618,278.625,608,282.625,612,278.625" style="stroke:#181818;stroke-width:1.0;"/><line style="stroke:#181818;stroke-width:1.0;" x1="383" x2="614" y1="278.625" y2="278.625"/><text fill="#000000" font-family="sans-serif" font-size="13" font-weight="bold" lengthAdjust="spacing" textLength="9" x="390" y="273.5591">6</text><text fill="#000000" font-family="sans-serif" font-size="13" lengthAdjust="spacing" textLength="105" x="403" y="273.5591">buildsys build-kit</text><polygon fill="#181818" points="797,303.7578,807,307.7578,797,311.7578,801,307.7578" style="stroke:#181818;stroke-width:1.0;"/><line style="stroke:#181818;stroke-width:1.0;" x1="620" x2="803" y1="307.7578" y2="307.7578"/><text fill="#000000" font-family="sans-serif" font-size="13" font-weight="bold" lengthAdjust="spacing" textLength="9" x="627" y="302.6919">7</text><text fill="#000000" font-family="sans-serif" font-size="13" lengthAdjust="spacing" textLength="113" x="640" y="302.6919">rpm build kit.spec</text><polygon fill="#181818" points="631,332.8906,621,336.8906,631,340.8906,627,336.8906" style="stroke:#181818;stroke-width:1.0;"/><line style="stroke:#181818;stroke-width:1.0;" x1="625" x2="808" y1="336.8906" y2="336.8906"/><text fill="#000000" font-family="sans-serif" font-size="13" font-weight="bold" lengthAdjust="spacing" textLength="9" x="637" y="331.8247">8</text><text fill="#000000" font-family="sans-serif" font-size="13" lengthAdjust="spacing" textLength="45" x="650" y="331.8247">kit.rpm</text><polygon fill="#181818" points="394,362.0234,384,366.0234,394,370.0234,390,366.0234" style="stroke:#181818;stroke-width:1.0;"/><line style="stroke:#181818;stroke-width:1.0;" x1="388" x2="619" y1="366.0234" y2="366.0234"/><text fill="#000000" font-family="sans-serif" font-size="13" font-weight="bold" lengthAdjust="spacing" textLength="9" x="400" y="360.9575">9</text><text fill="#000000" font-family="sans-serif" font-size="13" lengthAdjust="spacing" textLength="45" x="413" y="360.9575">kit.rpm</text><polygon fill="#181818" points="608,391.1563,618,395.1563,608,399.1563,612,395.1563" style="stroke:#181818;stroke-width:1.0;"/><line style="stroke:#181818;stroke-width:1.0;" x1="383" x2="614" y1="395.1563" y2="395.1563"/><text fill="#000000" font-family="sans-serif" font-size="13" font-weight="bold" lengthAdjust="spacing" textLength="18" x="390" y="390.0903">10</text><text fill="#000000" font-family="sans-serif" font-size="13" lengthAdjust="spacing" textLength="148" x="412" y="390.0903">buildsys aggregate-kits</text><polygon fill="#181818" points="394,420.2891,384,424.2891,394,428.2891,390,424.2891" style="stroke:#181818;stroke-width:1.0;"/><line style="stroke:#181818;stroke-width:1.0;" x1="388" x2="619" y1="424.2891" y2="424.2891"/><text fill="#000000" font-family="sans-serif" font-size="13" font-weight="bold" lengthAdjust="spacing" textLength="18" x="400" y="419.2231">11</text><text fill="#000000" font-family="sans-serif" font-size="13" lengthAdjust="spacing" textLength="191" x="422" y="419.2231">aggregated kits docker image</text><polygon fill="#181818" points="608,449.4219,618,453.4219,608,457.4219,612,453.4219" style="stroke:#181818;stroke-width:1.0;"/><line style="stroke:#181818;stroke-width:1.0;" x1="383" x2="614" y1="453.4219" y2="453.4219"/><text fill="#000000" font-family="sans-serif" font-size="13" font-weight="bold" lengthAdjust="spacing" textLength="18" x="390" y="448.356">12</text><text fill="#000000" font-family="sans-serif" font-size="13" lengthAdjust="spacing" textLength="134" x="412" y="448.356">buildsys build-variant</text><polygon fill="#181818" points="797,478.5547,807,482.5547,797,486.5547,801,482.5547" style="stroke:#181818;stroke-width:1.0;"/><line style="stroke:#181818;stroke-width:1.0;" x1="620" x2="803" y1="482.5547" y2="482.5547"/><text fill="#000000" font-family="sans-serif" font-size="13" font-weight="bold" lengthAdjust="spacing" textLength="18" x="627" y="477.4888">13</text><text fill="#000000" font-family="sans-serif" font-size="13" lengthAdjust="spacing" textLength="58" x="649" y="477.4888">rpm2img</text><polygon fill="#181818" points="631,507.6875,621,511.6875,631,515.6875,627,511.6875" style="stroke:#181818;stroke-width:1.0;"/><line style="stroke:#181818;stroke-width:1.0;" x1="625" x2="808" y1="511.6875" y2="511.6875"/><text fill="#000000" font-family="sans-serif" font-size="13" font-weight="bold" lengthAdjust="spacing" textLength="18" x="637" y="506.6216">14</text><text fill="#000000" font-family="sans-serif" font-size="13" lengthAdjust="spacing" textLength="105" x="659" y="506.6216">bottlerocket.img</text><polygon fill="#181818" points="394,536.8203,384,540.8203,394,544.8203,390,540.8203" style="stroke:#181818;stroke-width:1.0;"/><line style="stroke:#181818;stroke-width:1.0;" x1="388" x2="619" y1="540.8203" y2="540.8203"/><text fill="#000000" font-family="sans-serif" font-size="13" font-weight="bold" lengthAdjust="spacing" textLength="18" x="400" y="535.7544">15</text><text fill="#000000" font-family="sans-serif" font-size="13" lengthAdjust="spacing" textLength="105" x="422" y="535.7544">bottlerocket.img</text><!--SRC=[ZL4_RuSW5Dpv5CIf7VmD7PkcGtyTcdHinovF98IeGE3PFz- -3rGKeqqdyUxUtJs04QqPXqPwnfW3Zrfe1mPvzVvbUutIynSRiE8G-1X8rTZl3NUr1a4RwQkJuLKG7L2KiYjuPHCZugaadqRTj-4d9BwPVvWqBQSEKu-tvzTTC26xpD1sUOZ55NZzI4NuFSUbP3Bdd-0rUJ3YI94AaMZw3j39B9WWqYobigmm-Z1RiDDu4svBp87eGCc4Pwzqg6UAPPZYQ1DAycueno_1IR4A7-fPkD0qS5XvbqW5_qmZ_YmfKciAmPkKaZjf04fvgG1bR14EVR8aDGcyjQAZfzD3lAL_hBSytk6ATtfG1tir5h6NFYRX9KgEYkr5lm00]--></g></svg>